<?xml version="1.0" encoding="UTF-8"?>
<svg version="1.1" viewBox="0 0 2048 530" width="540" height="140" xmlns="http://www.w3.org/2000/svg">
<path transform="translate(197,24)" d="m0 0h174l21 3 18 5 21 9 14 8 16 12 10 9 11 11 12 16 11 19 8 20 5 17 3 20 1 26v126l-1 23-3 19-5 18-9 21-9 16-9 12-12 14-12 11-17 12-16 9-19 8-19 5-18 3-13 1h-153l-18-2-20-4-18-6-21-10-15-10-13-11-5-4-7-8-9-10-10-15-7-12-8-20-5-17-3-17-1-12v-154l2-22 4-19 8-22 10-19 12-17 9-10 15-15 17-12 16-9 19-8 18-5zm44 66-7 2-11 4-10 6-11 8-9 9-6 14-5 12v31l3 5v13l-6 5-14 1-6 3-7 2-10 6-3 3-6 3-13 13-6 10-6 11-5 14-1 5v35l3 4 2 9 9 16 7 10 5 5 11 8 4 3 6 3 6 4 12 1 1 3 23 1 20-1 2-4h9l18-10 15-14 5-6 4-3 7 1 5 2v13l-23 23-10 5-5 6 2 9 8 14 8 9 8 6 9 6 7 4h11l4 3h17l4-3h11l7-4 11-7 11-9 4-5 3-6 5-9v-7l4-5v-17l5-6 9-4 18-1 4-3 14-7 10-9 12-13 2-6 5-9 1-14 1-1v-8l-1-3-1-14-6-10-4-7-4-5-3-5-8-8-1-4 4-7 2-6 3-10 2-3v-25l-3-6-2-6-8-16-19-19-9-5-5-3-10-1-4-2h-20l-6 3h-6l-10 6-8 4-3 2-6-1-2-4-9-11-7-8-11-8-12-6-7-2-1-1-22-1z" fill="#168455"/>
<path transform="translate(1515,175)" d="m0 0h16l16 3 15 6 11 7 12 11 11 14 7 14 4 14 2 16v15l-2 16-6 18-7 12-10 13-9 8-11 7-13 6-20 4h-18l-16-4-14-7-5-3v62l-2 10-6 9-5 3-4 1h-12l-7-3-6-7-3-9v-216l3-8 5-6 10-4h9l7 3 6 5 4 4 10-6 13-5zm-5 44-13 4-10 6-8 7-1 3v57l3 5 8 6 12 6 13 3h15l10-3 10-6 7-8 6-12 2-13v-14l-3-16-5-9-6-7-10-6-9-3z" fill="#168455"/>
<path transform="translate(1910,175)" d="m0 0h16l16 3 16 7 11 7 12 11 12 17 6 14 3 11 2 18v10l-3 20-4 13-7 13-8 11-6 7-12 9-16 8-15 4-7 1h-18l-16-4-16-8-3-2v58l-2 14-4 6-6 5-5 2h-12l-7-3-6-6-3-8v-219l5-10 6-5 6-2h10l10 5 6 7 11-6 13-5zm-6 44-12 4-12 7-7 7v60l6 7 14 8 16 4h15l12-4 9-6 8-11 4-10 2-12v-12l-3-16-6-11-9-9-11-5-4-1z" fill="#168456"/>
<path transform="translate(1191,107)" d="m0 0h8l8 3 6 5 4 8 1 7v206l-2 8-4 6-6 5-7 2h-8l-7-3-8-7-5-1-15 8-14 4-5 1h-19l-16-3-16-7-13-9-9-9-10-14-5-11-5-16-2-14v-17l2-15 5-16 7-14 13-16 14-11 15-7 15-4 6-1h16l18 4 12 5 8 4v-61l3-10 4-5 7-4zm-72 112-11 4-9 7-6 8-4 10-2 9v20l3 13 5 9 7 8 9 6 12 3h15l16-5 12-7 5-5 2-6v-53l-3-6-11-8-11-5-8-2z" fill="#178557"/>
<path transform="translate(935,160)" d="m0 0 5 1 19 10 19 11 21 12 21 13 10 8 1 29v71l-2 5-15 10-18 10-15 9-14 8-23 13-9 3-23-12-24-14-22-13-20-12-2-3v-105l7-6 25-15 24-14 21-12zm-1 51-16 9-24 14-7 5v57l9 6 16 9 21 12 5 1 22-12 14-8 11-7 1-1v-57l-19-12-22-12-6-4z" fill="#168455"/>
<path transform="translate(1314,175)" d="m0 0h24l14 3 12 5 12 7 13 11 9 13 5 11 4 11 3 16v15l-4 10-8 6-10 2h-99l8 15 4 5 11 7 14 3h20l14-3 18-6h11l7 3 7 8 1 3v10l-4 8-9 8-19 8-15 4-5 1h-32l-16-3-16-6-11-6-12-11-7-8-8-16-4-13-2-8-1-10v-21l2-15 5-16 7-14 10-13 11-10 13-8 17-5zm12 40-12 2-10 6-8 7-6 10-1 5 1 1h75l-2-5-5-10-8-8-11-6z" fill="#168455"/>
<path transform="translate(1704,175)" d="m0 0h18l17 3 15 5 11 6 13 11 9 12 6 10 5 13 3 12 1 8v25l-2 13-5 15-6 12-10 13-7 7-13 8-12 5-10 3-19 3h-10l-20-3-16-6-10-5-13-10-12-16-7-15-4-13-2-15v-17l3-19 7-19 7-11 8-10 7-7 14-9 21-7zm1 43-10 3-10 6-7 7-6 11-3 12v17l4 16 5 10 4 5 10 7 12 4h19l13-5 10-8 6-9 4-11 2-14-1-15-3-10-6-11-9-8-11-5-7-2z" fill="#168456"/>
<path transform="translate(749,175)" d="m0 0h20l13 3 12 6 9 7 9 10 7 14 3 9 3 20v93l-3 9-6 7-6 3-11 1-7-2-8-7-3-6-1-5-1-90-2-12-4-9-6-4-7-2h-18l-11 4-9 6-8 7-4 6-1 91-3 12-5 6-8 4-9 1-8-2-8-6-4-11-1-25v-61l1-56 4-10 8-7 6-2h8l8 3 7 8 2 4 5-1 11-7 13-6z" fill="#168455"/>
<path transform="translate(367,167)" d="m0 0 7 1 5 4 7 11 12 24 1 13 3 3v30l-3 6-1 13-3 5-1 6h-2l-2 7-7 11-7 8-4 5h-12l-3-1-1-2v-9l4-7 10-13 3-6 2-2v-8l3-2 1-16 2-4v-10l-2-2v-16l-4-1v-7l-6-12-5-8-4-5v-10l3-4z" fill="#188657"/>
</svg>
